<?xml version="1.0" encoding="utf-8"?>
<!-- Generator: Adobe Illustrator 26.5.0, SVG Export Plug-In . SVG Version: 6.00 Build 0)  -->
<svg version="1.1" id="Livello_1" xmlns="http://www.w3.org/2000/svg" xmlns:xlink="http://www.w3.org/1999/xlink" x="0px" y="0px"
	 viewBox="0 0 1366 230.4" style="enable-background:new 0 0 1366 230.4;" xml:space="preserve">
<style type="text/css">
	.Ombra_x0020_esterna{fill:none;}
	.Bagliore_x0020_esterno_x0020_5_x0020_pt{fill:none;}
	.Neon_x0020_blu{fill:none;stroke:#8AACDA;stroke-width:7;stroke-linecap:round;stroke-linejoin:round;}
	.Cromato_x0020_evidenz_x002E_{fill:url(#SVGID_1_);stroke:#FFFFFF;stroke-width:0.3629;stroke-miterlimit:1;}
	.Jive_GS{fill:#FFDD00;}
	.Alyssa_GS{fill:#A6D0E4;}
</style>
<linearGradient id="SVGID_1_" gradientUnits="userSpaceOnUse" x1="0" y1="-277.3131" x2="6.123234e-17" y2="-278.3131">
	<stop  offset="0" style="stop-color:#656565"/>
	<stop  offset="0.618" style="stop-color:#1B1B1B"/>
	<stop  offset="0.6292" style="stop-color:#545454"/>
	<stop  offset="0.9831" style="stop-color:#3E3E3E"/>
</linearGradient>
<g>
	<path d="M617.6,209.3v-30.9h11.3c2,0,3.7,0.2,5,0.7c1.3,0.5,2.3,1.1,3.1,1.9c0.8,0.8,1.3,1.7,1.6,2.8c0.3,1,0.5,2.1,0.5,3.3
		c0,1.7-0.4,3.1-1.1,4.3c-0.7,1.1-1.6,2-2.7,2.6c-1.1,0.6-2.4,1.1-3.8,1.4c-1.4,0.3-2.8,0.4-4.3,0.4h-6.6v13.7H617.6z M627.2,193.1
		c1.4,0,2.6-0.1,3.7-0.3c1.1-0.2,2-0.5,2.8-1c0.8-0.5,1.3-1.1,1.8-1.9c0.4-0.8,0.6-1.9,0.6-3.2c0-1.9-0.6-3.4-1.9-4.4
		c-1.3-1-3.3-1.5-6.1-1.5h-7.6v12.3H627.2z"/>
	<path d="M652.4,209.9c-1.4,0-2.8-0.3-4-0.8c-1.2-0.5-2.3-1.2-3.3-2.2c-0.9-1-1.7-2.2-2.2-3.7c-0.5-1.5-0.8-3.2-0.8-5.1
		c0-1.6,0.2-3.2,0.6-4.6c0.4-1.4,1.1-2.7,1.9-3.7c0.9-1.1,1.9-1.9,3.2-2.5c1.3-0.6,2.8-0.9,4.5-0.9c1.7,0,3.3,0.3,4.6,0.9
		c1.3,0.6,2.4,1.4,3.2,2.5c0.9,1,1.5,2.3,1.9,3.7c0.4,1.4,0.6,3,0.6,4.6c0,1.8-0.2,3.4-0.7,4.8c-0.5,1.4-1.2,2.7-2.1,3.7
		c-0.9,1-2,1.8-3.3,2.4C655.4,209.6,653.9,209.9,652.4,209.9z M660,198.2c0-1.3-0.1-2.5-0.4-3.7c-0.3-1.1-0.7-2.1-1.3-3
		c-0.6-0.8-1.4-1.5-2.3-2c-0.9-0.5-2.1-0.7-3.5-0.7c-1.3,0-2.5,0.3-3.5,0.8c-1,0.5-1.7,1.2-2.3,2.1c-0.6,0.9-1,1.9-1.3,3
		c-0.3,1.1-0.4,2.3-0.4,3.5c0,1.4,0.2,2.6,0.5,3.8c0.3,1.2,0.8,2.2,1.4,3c0.6,0.8,1.4,1.5,2.4,1.9c0.9,0.5,2,0.7,3.3,0.7
		c1.3,0,2.5-0.3,3.5-0.8s1.7-1.2,2.3-2.1c0.6-0.9,1-1.9,1.3-3C659.8,200.5,660,199.4,660,198.2z"/>
	<path d="M686.2,205.9l5.8-18.8h2.6l-7.2,22.2h-2.7l-4.9-18.7h-0.1l-4.9,18.7h-3.1L665,187h2.6l5.8,19l5.2-19h2.9L686.2,205.9z"/>
	<path d="M700,198.8c0,1.2,0.2,2.3,0.5,3.4c0.3,1.1,0.8,2,1.4,2.8c0.6,0.8,1.4,1.4,2.3,1.9c0.9,0.5,2,0.7,3.3,0.7
		c1.7,0,3.1-0.4,4.3-1.3c1.2-0.9,2-2.1,2.4-3.8h2.9c-0.3,1.1-0.7,2-1.2,2.9c-0.5,0.9-1.2,1.7-1.9,2.4c-0.8,0.7-1.7,1.2-2.7,1.6
		c-1.1,0.4-2.3,0.6-3.7,0.6c-1.8,0-3.3-0.3-4.6-0.9c-1.3-0.6-2.3-1.4-3.2-2.5s-1.4-2.3-1.8-3.7c-0.4-1.4-0.6-2.9-0.6-4.6
		c0-1.6,0.2-3.2,0.7-4.6c0.5-1.4,1.1-2.7,2-3.8s1.9-1.9,3.2-2.5c1.3-0.6,2.7-0.9,4.3-0.9c3.1,0,5.5,1.1,7.2,3.2
		c1.7,2.1,2.6,5.2,2.6,9.2H700z M714.5,196.6c0-1.1-0.2-2.1-0.5-3.1c-0.3-1-0.7-1.8-1.3-2.5c-0.6-0.7-1.3-1.3-2.2-1.7
		c-0.9-0.4-1.9-0.6-3-0.6c-1.1,0-2.2,0.2-3,0.6c-0.9,0.4-1.6,1-2.2,1.7c-0.6,0.7-1.1,1.5-1.5,2.5c-0.4,0.9-0.6,1.9-0.7,3H714.5z"/>
	<path d="M725,209.3h-2.6V187h2.6v4.2h0.1c0.7-1.8,1.6-3,2.8-3.7c1.1-0.7,2.6-1.1,4.5-1.1v2.8c-1.5,0-2.7,0.2-3.6,0.7
		c-0.9,0.5-1.7,1.1-2.3,2c-0.6,0.8-0.9,1.8-1.2,2.9c-0.2,1.1-0.3,2.3-0.3,3.5V209.3z"/>
	<path d="M738.2,198.8c0,1.2,0.2,2.3,0.5,3.4c0.3,1.1,0.8,2,1.4,2.8c0.6,0.8,1.4,1.4,2.3,1.9c0.9,0.5,2,0.7,3.3,0.7
		c1.7,0,3.1-0.4,4.3-1.3c1.2-0.9,2-2.1,2.4-3.8h2.9c-0.3,1.1-0.7,2-1.2,2.9c-0.5,0.9-1.2,1.7-1.9,2.4c-0.8,0.7-1.7,1.2-2.7,1.6
		c-1.1,0.4-2.3,0.6-3.7,0.6c-1.8,0-3.3-0.3-4.6-0.9c-1.3-0.6-2.3-1.4-3.2-2.5s-1.4-2.3-1.8-3.7c-0.4-1.4-0.6-2.9-0.6-4.6
		c0-1.6,0.2-3.2,0.7-4.6c0.5-1.4,1.1-2.7,2-3.8c0.9-1.1,1.9-1.9,3.2-2.5c1.3-0.6,2.7-0.9,4.3-0.9c3.1,0,5.5,1.1,7.2,3.2
		c1.7,2.1,2.6,5.2,2.6,9.2H738.2z M752.7,196.6c0-1.1-0.2-2.1-0.5-3.1c-0.3-1-0.7-1.8-1.3-2.5c-0.6-0.7-1.3-1.3-2.2-1.7
		c-0.9-0.4-1.9-0.6-3-0.6c-1.1,0-2.2,0.2-3,0.6c-0.9,0.4-1.6,1-2.2,1.7c-0.6,0.7-1.1,1.5-1.5,2.5c-0.4,0.9-0.6,1.9-0.7,3H752.7z"/>
	<path d="M777.7,178.4h2.6v30.9h-2.6v-3.9h-0.1c-0.4,0.7-0.9,1.4-1.4,2c-0.6,0.6-1.2,1-1.9,1.4c-0.7,0.4-1.4,0.7-2.2,0.9
		c-0.7,0.2-1.5,0.3-2.2,0.3c-1.8,0-3.3-0.3-4.6-0.9c-1.3-0.6-2.3-1.4-3.1-2.5c-0.8-1-1.4-2.3-1.8-3.7c-0.4-1.4-0.6-3-0.6-4.6
		c0-1.5,0.2-3,0.6-4.5c0.4-1.4,1-2.7,1.8-3.8c0.8-1.1,1.8-1.9,3.1-2.6c1.2-0.6,2.7-1,4.4-1c1.6,0,3.1,0.4,4.5,1.1s2.6,1.7,3.4,3.1
		V178.4z M777.7,198.1c0-1.3-0.2-2.5-0.5-3.6c-0.3-1.1-0.8-2.1-1.5-3c-0.6-0.8-1.4-1.5-2.4-2s-2-0.8-3.2-0.8c-1.3,0-2.5,0.3-3.5,0.8
		c-1,0.5-1.8,1.3-2.4,2.2c-0.6,0.9-1.1,2-1.4,3.2c-0.3,1.2-0.4,2.5-0.3,3.9c0,1.4,0.2,2.6,0.6,3.7c0.4,1.1,0.9,2,1.6,2.7
		c0.7,0.7,1.5,1.3,2.4,1.7c0.9,0.4,1.9,0.6,3,0.6c1.2,0,2.3-0.2,3.2-0.7c0.9-0.5,1.7-1.2,2.4-2c0.6-0.8,1.1-1.8,1.4-3
		C777.5,200.7,777.7,199.4,777.7,198.1z"/>
	<path d="M801.5,209.3H799v-30.9h2.6v12.2c0.8-1.4,2-2.4,3.4-3.1c1.4-0.7,3-1.1,4.5-1.1c1.7,0,3.2,0.3,4.4,1
		c1.2,0.6,2.3,1.5,3.1,2.6c0.8,1.1,1.4,2.3,1.8,3.8c0.4,1.4,0.6,2.9,0.6,4.5c0,1.6-0.2,3.2-0.6,4.6c-0.4,1.4-1,2.7-1.8,3.7
		c-0.8,1-1.9,1.9-3.1,2.5c-1.3,0.6-2.8,0.9-4.6,0.9c-0.7,0-1.4-0.1-2.2-0.3c-0.7-0.2-1.5-0.5-2.2-0.9c-0.7-0.4-1.3-0.8-1.9-1.4
		c-0.6-0.6-1.1-1.2-1.4-2h-0.1V209.3z M801.5,198.1c0,1.3,0.2,2.6,0.5,3.8c0.3,1.2,0.8,2.2,1.4,3c0.6,0.8,1.4,1.5,2.4,2
		c0.9,0.5,2,0.7,3.2,0.7c1.1,0,2.1-0.2,3-0.6c0.9-0.4,1.7-1,2.4-1.7c0.7-0.7,1.2-1.7,1.6-2.7c0.4-1.1,0.6-2.3,0.6-3.7
		c0.1-1.4-0.1-2.7-0.3-3.9c-0.3-1.2-0.7-2.3-1.4-3.2c-0.6-0.9-1.4-1.6-2.4-2.2c-1-0.5-2.1-0.8-3.5-0.8c-1.2,0-2.2,0.3-3.2,0.8
		s-1.7,1.2-2.4,2c-0.6,0.8-1.1,1.8-1.5,3C801.7,195.6,801.5,196.8,801.5,198.1z"/>
	<path d="M824.7,215.3c0.3,0.1,0.7,0.1,1.1,0.2c0.4,0.1,0.7,0.1,1.1,0.1c0.7,0,1.3-0.2,1.8-0.7c0.5-0.5,0.8-1,1.1-1.7
		c0.3-0.6,0.6-1.3,0.8-2c0.2-0.7,0.4-1.3,0.7-1.8l-8.6-22.4h2.9l7.1,19.1l7.1-19.1h2.8l-8.3,21.9c-0.5,1.4-1,2.7-1.5,3.8
		c-0.5,1.1-1,2.1-1.5,2.9c-0.5,0.8-1.1,1.4-1.8,1.8c-0.6,0.4-1.4,0.6-2.3,0.6c-0.5,0-0.9,0-1.3-0.1c-0.4-0.1-0.8-0.1-1.1-0.2V215.3z
		"/>
	<path d="M880.6,187.3c-0.6-2.6-1.7-4.5-3.3-5.6c-1.6-1.1-3.8-1.7-6.4-1.7c-1.9,0-3.5,0.4-4.8,1.1c-1.3,0.7-2.5,1.7-3.3,3
		c-0.9,1.3-1.5,2.7-1.9,4.4c-0.4,1.6-0.6,3.4-0.6,5.2c0,1.7,0.2,3.4,0.5,5.1c0.4,1.7,1,3.1,1.8,4.4c0.8,1.3,1.9,2.4,3.3,3.2
		c1.4,0.8,3.2,1.2,5.3,1.2c1.3,0,2.5-0.2,3.6-0.6c1.1-0.4,2-1,2.9-1.8c0.8-0.8,1.5-1.7,2.1-2.7c0.6-1,1-2.2,1.3-3.4h3
		c-0.3,1.5-0.8,2.9-1.5,4.2c-0.7,1.3-1.5,2.5-2.6,3.5c-1.1,1-2.4,1.8-3.9,2.4c-1.5,0.6-3.3,0.9-5.4,0.9c-2.4,0-4.4-0.4-6.1-1.3
		c-1.7-0.9-3.1-2.1-4.1-3.5c-1.1-1.5-1.9-3.2-2.3-5.2c-0.5-2-0.7-4-0.7-6.2c0-2.9,0.4-5.5,1.1-7.5c0.7-2.1,1.7-3.7,3-5
		c1.3-1.3,2.8-2.2,4.6-2.8c1.7-0.6,3.7-0.9,5.7-0.9c1.6,0,3,0.2,4.4,0.6c1.4,0.4,2.6,1,3.6,1.9c1,0.8,1.9,1.9,2.6,3.1
		c0.7,1.2,1.1,2.6,1.4,4.2H880.6z"/>
	<path d="M898.2,209.9c-1.4,0-2.8-0.3-4-0.8c-1.2-0.5-2.3-1.2-3.3-2.2c-0.9-1-1.7-2.2-2.2-3.7c-0.5-1.5-0.8-3.2-0.8-5.1
		c0-1.6,0.2-3.2,0.6-4.6c0.4-1.4,1.1-2.7,1.9-3.7c0.9-1.1,1.9-1.9,3.2-2.5c1.3-0.6,2.8-0.9,4.5-0.9c1.7,0,3.3,0.3,4.6,0.9
		c1.3,0.6,2.4,1.4,3.2,2.5c0.9,1,1.5,2.3,1.9,3.7c0.4,1.4,0.6,3,0.6,4.6c0,1.8-0.2,3.4-0.7,4.8c-0.5,1.4-1.2,2.7-2.1,3.7
		c-0.9,1-2,1.8-3.3,2.4C901.1,209.6,899.7,209.9,898.2,209.9z M905.7,198.2c0-1.3-0.1-2.5-0.4-3.7c-0.3-1.1-0.7-2.1-1.3-3
		c-0.6-0.8-1.4-1.5-2.3-2c-0.9-0.5-2.1-0.7-3.5-0.7c-1.3,0-2.5,0.3-3.5,0.8c-1,0.5-1.7,1.2-2.3,2.1c-0.6,0.9-1,1.9-1.3,3
		c-0.3,1.1-0.4,2.3-0.4,3.5c0,1.4,0.2,2.6,0.5,3.8c0.3,1.2,0.8,2.2,1.4,3c0.6,0.8,1.4,1.5,2.4,1.9c0.9,0.5,2,0.7,3.3,0.7
		c1.3,0,2.5-0.3,3.5-0.8s1.7-1.2,2.3-2.1c0.6-0.9,1-1.9,1.3-3C905.6,200.5,905.7,199.4,905.7,198.2z"/>
	<path d="M915.8,209.3h-2.6V187h2.6v3.1c1-1.1,2.1-2,3.2-2.7c1.1-0.7,2.4-1,4-1c1.4,0,2.6,0.2,3.8,0.7c1.2,0.5,2.2,1.3,3,2.5
		c0.5,0.8,0.9,1.6,1,2.5c0.1,0.8,0.2,1.7,0.2,2.6v14.6h-2.6v-14.5c0-2-0.4-3.5-1.3-4.5c-0.9-1-2.4-1.5-4.4-1.5
		c-0.8,0-1.5,0.1-2.2,0.4c-0.7,0.2-1.3,0.6-1.8,1c-0.5,0.4-1,0.9-1.4,1.4c-0.4,0.5-0.7,1.1-0.9,1.6c-0.3,0.7-0.4,1.4-0.5,2.1
		c-0.1,0.7-0.1,1.4-0.1,2.1V209.3z"/>
	<path d="M944.9,209.4c-0.3,0.1-0.7,0.2-1.2,0.3c-0.5,0.1-1.1,0.2-1.7,0.2c-1.3,0-2.3-0.3-2.9-1c-0.7-0.6-1-1.8-1-3.5v-16.3h-3.1
		V187h3.1v-6.2h2.6v6.2h4.2v2.1h-4.2v15.2c0,0.5,0,1,0,1.4c0,0.4,0.1,0.7,0.3,1c0.1,0.3,0.4,0.4,0.7,0.6c0.3,0.1,0.7,0.2,1.3,0.2
		c0.3,0,0.7,0,1.1-0.1c0.4-0.1,0.7-0.1,1.1-0.2V209.4z"/>
	<path d="M951.7,209.3h-2.6V187h2.6v4.2h0.1c0.7-1.8,1.6-3,2.8-3.7c1.1-0.7,2.6-1.1,4.5-1.1v2.8c-1.5,0-2.7,0.2-3.6,0.7
		c-0.9,0.5-1.7,1.1-2.3,2c-0.6,0.8-0.9,1.8-1.2,2.9c-0.2,1.1-0.3,2.3-0.3,3.5V209.3z"/>
	<path d="M973.5,196.3c0.5-0.1,1.1-0.1,1.7-0.3c0.7-0.1,1.2-0.3,1.7-0.5c0.4-0.2,0.7-0.5,0.8-1c0.1-0.5,0.2-0.9,0.2-1.3
		c0-1.3-0.4-2.4-1.3-3.2c-0.8-0.8-2.3-1.3-4.3-1.3c-0.9,0-1.7,0.1-2.4,0.2c-0.7,0.2-1.4,0.4-2,0.8c-0.6,0.4-1,0.9-1.4,1.5
		c-0.4,0.6-0.6,1.5-0.7,2.4h-2.6c0.1-1.3,0.4-2.4,0.9-3.4c0.5-0.9,1.2-1.7,2-2.3c0.8-0.6,1.8-1,2.8-1.3c1.1-0.3,2.2-0.4,3.4-0.4
		c1.1,0,2.2,0.1,3.2,0.4c1,0.2,1.8,0.6,2.6,1.2c0.7,0.5,1.3,1.2,1.7,2.1c0.4,0.9,0.6,2,0.6,3.3v12.1c0,1,0.2,1.6,0.5,1.9
		c0.4,0.3,1.1,0.2,2.2-0.2v2c-0.2,0.1-0.5,0.1-0.9,0.3c-0.4,0.1-0.8,0.2-1.1,0.2c-0.4,0-0.8,0-1.2-0.1c-0.4-0.1-0.8-0.2-1-0.4
		c-0.3-0.2-0.5-0.5-0.6-0.8c-0.2-0.3-0.3-0.6-0.3-1c-0.1-0.4-0.1-0.7-0.1-1.1c-1.1,1.2-2.3,2.1-3.7,2.7c-1.4,0.6-2.9,0.9-4.6,0.9
		c-1,0-1.9-0.1-2.8-0.4c-0.9-0.3-1.7-0.7-2.4-1.2c-0.7-0.5-1.2-1.2-1.6-2c-0.4-0.8-0.6-1.7-0.6-2.8c0-3.8,2.6-6,7.8-6.7L973.5,196.3
		z M977.9,197.6c-1.1,0.5-2.2,0.8-3.3,0.9c-1.1,0.1-2.2,0.3-3.3,0.3c-2,0.1-3.5,0.6-4.6,1.3c-1.1,0.7-1.7,1.9-1.7,3.4
		c0,0.7,0.1,1.3,0.4,1.8c0.3,0.5,0.6,0.9,1.1,1.2c0.4,0.3,1,0.6,1.5,0.7c0.6,0.2,1.2,0.2,1.8,0.2c1,0,2-0.1,3-0.4
		c1-0.3,1.8-0.7,2.6-1.2c0.8-0.5,1.4-1.2,1.8-2c0.5-0.8,0.7-1.8,0.7-2.9V197.6z"/>
	<path d="M1004.4,178.4h2.6v30.9h-2.6v-3.9h-0.1c-0.4,0.7-0.9,1.4-1.4,2c-0.6,0.6-1.2,1-1.9,1.4c-0.7,0.4-1.4,0.7-2.2,0.9
		c-0.7,0.2-1.5,0.3-2.2,0.3c-1.8,0-3.3-0.3-4.6-0.9c-1.3-0.6-2.3-1.4-3.1-2.5c-0.8-1-1.4-2.3-1.8-3.7c-0.4-1.4-0.6-3-0.6-4.6
		c0-1.5,0.2-3,0.6-4.5c0.4-1.4,1-2.7,1.8-3.8c0.8-1.1,1.8-1.9,3.1-2.6c1.2-0.6,2.7-1,4.4-1c1.6,0,3.1,0.4,4.5,1.1s2.6,1.7,3.4,3.1
		V178.4z M1004.4,198.1c0-1.3-0.2-2.5-0.5-3.6c-0.3-1.1-0.8-2.1-1.5-3c-0.6-0.8-1.4-1.5-2.4-2s-2-0.8-3.2-0.8
		c-1.3,0-2.5,0.3-3.5,0.8c-1,0.5-1.8,1.3-2.4,2.2c-0.6,0.9-1.1,2-1.4,3.2c-0.3,1.2-0.4,2.5-0.3,3.9c0,1.4,0.2,2.6,0.6,3.7
		c0.4,1.1,0.9,2,1.6,2.7c0.7,0.7,1.5,1.3,2.4,1.7c0.9,0.4,1.9,0.6,3,0.6c1.2,0,2.3-0.2,3.2-0.7c0.9-0.5,1.7-1.2,2.4-2
		c0.6-0.8,1.1-1.8,1.4-3C1004.2,200.7,1004.4,199.4,1004.4,198.1z"/>
	<path d="M1015,198.8c0,1.2,0.2,2.3,0.5,3.4c0.3,1.1,0.8,2,1.4,2.8c0.6,0.8,1.4,1.4,2.3,1.9c0.9,0.5,2,0.7,3.3,0.7
		c1.7,0,3.1-0.4,4.3-1.3c1.2-0.9,2-2.1,2.4-3.8h2.9c-0.3,1.1-0.7,2-1.2,2.9c-0.5,0.9-1.2,1.7-1.9,2.4c-0.8,0.7-1.7,1.2-2.7,1.6
		c-1.1,0.4-2.3,0.6-3.7,0.6c-1.8,0-3.3-0.3-4.6-0.9c-1.3-0.6-2.3-1.4-3.2-2.5s-1.4-2.3-1.8-3.7c-0.4-1.4-0.6-2.9-0.6-4.6
		c0-1.6,0.2-3.2,0.7-4.6c0.5-1.4,1.1-2.7,2-3.8s1.9-1.9,3.2-2.5c1.3-0.6,2.7-0.9,4.3-0.9c3.1,0,5.5,1.1,7.2,3.2
		c1.7,2.1,2.6,5.2,2.6,9.2H1015z M1029.5,196.6c0-1.1-0.2-2.1-0.5-3.1c-0.3-1-0.7-1.8-1.3-2.5c-0.6-0.7-1.3-1.3-2.2-1.7
		c-0.9-0.4-1.9-0.6-3-0.6c-1.1,0-2.2,0.2-3,0.6c-0.9,0.4-1.6,1-2.2,1.7c-0.6,0.7-1.1,1.5-1.5,2.5c-0.4,0.9-0.6,1.9-0.7,3H1029.5z"/>
	<path d="M1040,209.3h-2.6V187h2.6v4.2h0.1c0.7-1.8,1.6-3,2.8-3.7c1.1-0.7,2.6-1.1,4.5-1.1v2.8c-1.5,0-2.7,0.2-3.6,0.7
		c-0.9,0.5-1.7,1.1-2.3,2c-0.6,0.8-0.9,1.8-1.2,2.9c-0.2,1.1-0.3,2.3-0.3,3.5V209.3z"/>
</g>
<g>
	<path d="M314.4,62c-30.9-21.8-64.6-36.7-103.2-33.4c-26.2,2.3-52.2,8-78.1,12.5c-10.4,1.8-20.7,4.4-30.8,7.4
		c-11.5,3.4-22.7,7.7-34.8,11.9c-3.1-5.1,0.7-9.1,5.6-11.2c9.7-4.1,19.5-8.3,29.7-10.6c30.7-6.7,61.4-13.2,92.4-18.6
		c36.5-6.3,70.4,2.7,102.1,20.9c5.4,3.1,10.8,6.6,15.4,10.7c2.4,2.2,2.9,6.3,4.3,9.6C316.1,61.6,315.2,61.8,314.4,62z"/>
	<path d="M310.6,65.4c-5.4,7-10.1,3.7-14.7,1.2c-27.6-15.3-56.9-25.2-88.8-21.1c-27.1,3.4-54.1,8.6-81,13.8
		c-14.5,2.8-28.6,7.7-43,11.1C80,71,76.4,69.2,73,68.5c0-1.1,0.1-2.2,0.1-3.4c6.4-2.4,12.7-5.5,19.3-7.3C130.1,47.8,168,39,207,35.5
		c37-3.3,69.8,8.7,100.5,28.2C308.5,64.3,309.6,64.8,310.6,65.4z"/>
	<path d="M67.1,68.9c44.9,35.8,95,42.4,149.9,29.1c0,8.5,0,15.2,0,21.9c0,15.6-0.3,31.2,0.1,46.9c0.2,7-2.7,9-9.9,7.6
		c0-21.1,0-42.1,0-63.9c-9.1,1-17.3,1.7-25.4,2.8c-39.5,5.1-74.4-7.3-107.1-28.2C69.2,81.7,64.9,77.1,67.1,68.9z"/>
	<path d="M293.4,74.9c-4.3,0.1-9.4,1.8-12.9,0.1c-34.6-16.7-70.5-16.4-107-9c-23.4,4.8-46.7,10.2-70.1,14.7c-4.3,0.8-9.3-1.3-13.9-2
		c0-0.9-0.1-1.9-0.1-2.8c2.1-0.9,4.1-2.1,6.3-2.5c35-7.1,69.8-15,105-20.7c32.1-5.2,62.4,2.8,90.9,18.1c0.8,0.4,1.4,1.2,2.1,1.8
		C293.5,73.3,293.5,74.1,293.4,74.9z"/>
	<path d="M270.7,81.2c-5.8,0.2-11.9,1.6-17.3,0.3c-22.5-5.3-45-4.7-67.4-1.1c-18.6,3-37,6.9-55.5,10.6c-6.8,1.4-12.7,0-19.7-4.9
		c8.1-2,14.7-3.9,21.4-5.3c31-6.2,61.9-13.8,93.9-12.8c16,0.5,35.6,5.1,44.8,10.8C270.7,79.6,270.7,80.4,270.7,81.2z"/>
	<path d="M199.4,167c1.9,6.5,1.3,9.6-4.8,10.6c-43.3,7.3-82.7-2.4-119.1-26.2c-5.8-3.8-10.9-8.2-8.6-16.6
		C106.5,165.2,150.4,176.5,199.4,167z"/>
	<path d="M67,102.1c39.8,30.1,83.5,41.7,132,32.1c2.7,6.5,2,9.7-4.9,10.8c-43,7.2-82.2-2.9-118.4-26.3
		C70.2,115.2,65.1,110.9,67,102.1z"/>
	<path d="M67.1,85.7c39.8,30,83.4,41.9,132,32.1c2.8,6.9,1.1,9.6-5.3,10.7c-43.4,7.6-82.7-3.1-119-26.8
		C67.3,96.8,66.3,94.2,67.1,85.7z"/>
	<path d="M67.2,118.1c14.5,13.4,31.6,20.6,48.9,27.2c23.5,9,47.9,10.7,72.8,6.9c3.6-0.5,9.8-4.6,11.3,2.5c1.6,7.9-5.5,6-9.7,6.7
		c-42.3,7.6-80.1-4.2-115.4-26.6C69.6,131.3,64.9,126.8,67.2,118.1z"/>
	<path d="M315.9,70.9c2.2,6.2-0.9,10.6-6.4,12.8c-10.2,4.1-20.6,7.7-31.2,10.8c-11.5,3.3-11.6,3-11.6,14.9c0,15.6-0.2,31.2,0.1,46.8
		c0.1,6.2-2.2,8.9-9.2,8.3c-0.3-2.4-0.8-5-0.8-7.6c-0.1-19.6,0.2-39.2-0.2-58.8c-0.1-6.5,2.5-8.6,8.3-9.9
		c10.3-2.2,20.5-4.9,30.5-8.2C302.3,77.7,308.6,74.2,315.9,70.9z"/>
	<path d="M220.1,97.7c1.7-0.2,3.4-0.5,5.1-0.7c7.7-1,18.2-2.4,25.9-3.6c2.7-0.4,1.7,1.6,2.2,9.2c-0.8,0.4,0.9-0.1,0,0
		c-8.7,1.3-19.9,3.5-28.6,4.9C222.1,107.9,220.6,105.9,220.1,97.7z"/>
	<path d="M238.1,86.6c-23,7.3-74.2,14.8-92,9.4C157.1,88.3,221.5,81.4,238.1,86.6z"/>
	<path d="M275,145.9c-3.2-8-1-10.4,4.9-12.2c12.1-3.6,23.9-8.2,36.4-12.6c1.9,4.5-0.6,9.2-6.1,11.5
		C298.9,137.4,287.1,141.4,275,145.9z"/>
	<path d="M274.7,130c-2.3-7.6-1.7-10.5,4.4-12.3c12.3-3.7,24.3-8.5,37.1-13c1.6,3.7,0.2,8.4-4.8,10.6
		C299.7,120.5,287.5,124.9,274.7,130z"/>
	<path d="M274.4,161.1c-2.1-5.9-1.3-8.8,4.7-10.6c12.3-3.7,24.3-8.4,37.2-12.9c1.4,2.8,0.4,6.9-3.6,9.7
		C301.2,155.3,287.9,158.2,274.4,161.1z"/>
	<path d="M316.5,88.2c1,4.3-0.6,9.1-5.8,11.3c-11.6,4.9-23.6,9-35.6,13.5c-3.1-7.3-2-10.1,4.3-12C291.8,97.3,303.8,92.7,316.5,88.2z
		"/>
</g>
<g>
	<path d="M389.8,154.2c-6.9-2.7-12.3-6.6-16.3-11.7c-4-5.1-6.2-11.2-6.6-18.4l-0.1-1.3H390l0.2,0.9c0.5,3,1.9,5.6,4.1,7.8
		c2.2,2.2,5,3.9,8.5,5.1c3.5,1.2,7.5,1.8,11.9,1.8c4.5,0,8.4-0.6,11.7-1.8c3.3-1.2,5.8-2.9,7.6-5.2c1.8-2.2,2.7-4.8,2.7-7.8v-0.1
		c0-3.9-1.6-7-4.7-9.3c-3.1-2.2-8.3-4.1-15.5-5.5l-12.3-2.5c-11.5-2.3-20.2-6.2-26-11.7c-5.9-5.5-8.8-12.7-8.8-21.5V73
		c0.1-7.1,2-13.3,5.8-18.6c3.8-5.3,9.1-9.4,15.8-12.4c6.7-3,14.3-4.4,23-4.4c9,0,16.8,1.4,23.3,4.2c6.6,2.8,11.7,6.8,15.3,11.9
		c3.7,5.1,5.7,11.1,6.1,17.9l0.1,1.5h-23.1l-0.2-1c-0.4-3.1-1.5-5.7-3.4-7.8c-1.9-2.2-4.4-3.8-7.5-5c-3.1-1.2-6.6-1.8-10.7-1.8
		c-4.2,0-7.7,0.6-10.8,1.8c-3,1.2-5.3,2.8-6.9,5c-1.6,2.1-2.4,4.6-2.4,7.3v0.1c0,3.7,1.6,6.7,4.7,8.9c3.1,2.2,8,4,14.7,5.4l12.4,2.5
		c12.2,2.4,21.2,6.3,26.9,11.5c5.7,5.3,8.5,12.5,8.5,21.6v0.1c0,7.5-1.9,14-5.6,19.5c-3.7,5.5-9.1,9.7-16.2,12.7
		c-7,3-15.5,4.5-25.3,4.5C404.8,158.3,396.7,156.9,389.8,154.2z"/>
	<path d="M487,152c-4.6-4-7-10.7-7-20V87.4H468V69.6h12.1V48.4h23.9v21.2h15.9v17.8h-15.9v42.1c0,4,0.9,6.9,2.7,8.5
		c1.8,1.6,4.5,2.4,8,2.4c1.1,0,2,0,2.8-0.1c0.8-0.1,1.6-0.2,2.3-0.3v17.3c-1.3,0.2-2.9,0.4-4.8,0.6c-1.9,0.2-4.1,0.3-6.6,0.3
		C498.8,158.1,491.7,156,487,152z"/>
	<path d="M542.6,154.3c-4.4-2.2-7.8-5.3-10.3-9.3c-2.5-4-3.7-8.5-3.7-13.5v-0.2c0-7.9,3-14.1,8.9-18.6c5.9-4.5,14.2-7.1,25-7.8
		l33.8-2.1v14.7l-30.3,2c-4.5,0.3-8,1.3-10.4,3.2c-2.4,1.8-3.6,4.3-3.6,7.4v0.2c0,3.2,1.2,5.7,3.6,7.5c2.4,1.8,5.7,2.7,9.8,2.7
		c3.5,0,6.6-0.7,9.4-2.1c2.8-1.4,5-3.3,6.6-5.7c1.6-2.4,2.4-5.1,2.4-8V98.3c0-3.8-1.2-6.8-3.6-9.1c-2.4-2.2-6-3.3-10.6-3.3
		c-4.4,0-7.9,0.9-10.5,2.7c-2.6,1.8-4.2,4.1-4.8,6.9l-0.2,0.7h-21.7l0.1-1c0.5-5.3,2.3-10.1,5.4-14.2c3.1-4.2,7.4-7.4,12.9-9.7
		c5.5-2.3,12.1-3.5,19.7-3.5c7.5,0,14,1.2,19.5,3.6c5.5,2.4,9.8,5.8,12.8,10.2c3,4.4,4.6,9.5,4.6,15.3v59.5h-23.6v-12.9h-0.5
		c-1.7,2.9-3.8,5.4-6.3,7.6c-2.5,2.2-5.4,3.8-8.7,4.9c-3.3,1.1-6.8,1.7-10.6,1.7C552,157.6,546.9,156.5,542.6,154.3z"/>
	<path d="M635.9,152.6c-5.3-3.6-9.4-8.8-12.2-15.5c-2.9-6.7-4.3-14.8-4.3-24.2v-0.1c0-9.4,1.4-17.5,4.3-24.2
		c2.9-6.7,6.9-11.9,12.2-15.5c5.3-3.6,11.5-5.4,18.8-5.4c6.2,0,11.6,1.5,16.3,4.5c4.6,3,8.1,7.1,10.5,12.3h0.5V39.5h23.6v116.7H682
		v-14.8h-0.5c-2.3,5.2-5.8,9.2-10.4,12.2c-4.6,2.9-10,4.4-16.3,4.4C647.5,158.1,641.2,156.2,635.9,152.6z M672.8,135.4
		c2.9-2.1,5.2-5,6.8-8.9c1.6-3.8,2.4-8.4,2.4-13.6v-0.1c0-5.2-0.8-9.7-2.4-13.5c-1.6-3.8-3.9-6.8-6.8-8.9c-2.9-2.1-6.2-3.1-10.1-3.1
		c-3.9,0-7.3,1-10.2,3.1c-2.9,2-5.1,5-6.6,8.8c-1.6,3.8-2.3,8.3-2.3,13.6v0.1c0,5.2,0.8,9.8,2.3,13.6c1.5,3.8,3.7,6.8,6.6,8.9
		c2.9,2.1,6.3,3.1,10.2,3.1C666.5,138.5,669.9,137.4,672.8,135.4z"/>
	<path d="M724.6,54.8c-2.5-2.5-3.7-5.4-3.7-8.7c0-3.4,1.2-6.3,3.7-8.7c2.5-2.4,5.5-3.6,9-3.6c3.6,0,6.6,1.2,9,3.6
		c2.4,2.4,3.6,5.3,3.6,8.7c0,3.3-1.2,6.2-3.6,8.7c-2.4,2.5-5.4,3.7-9,3.7C730.1,58.5,727.1,57.3,724.6,54.8z M721.8,69.6h23.7v86.7
		h-23.7V69.6z"/>
	<path d="M774.5,154.1c-4.5-2.6-7.9-6.3-10.2-11.2c-2.3-4.9-3.5-10.7-3.5-17.4v-56h23.6v51c0,5.7,1.3,10.1,4,13.2
		c2.7,3.1,6.6,4.7,11.9,4.7c3.6,0,6.6-0.8,9.2-2.4c2.6-1.6,4.6-3.9,6-6.8c1.4-2.9,2.1-6.2,2.1-9.9V69.6h23.6v86.7h-23.6V142h-0.6
		c-2.2,5-5.5,9-10,11.8c-4.4,2.9-9.9,4.3-16.5,4.3C784.4,158.1,779,156.7,774.5,154.1z"/>
	<path d="M856.7,69.6h23.6v14.6h0.5c1.8-5,4.8-8.9,9.1-11.9c4.3-3,9.3-4.4,15.2-4.4c4,0,7.7,0.7,10.9,2.1c3.2,1.4,6,3.4,8.2,6.1
		c2.2,2.6,3.8,5.9,4.7,9.7h0.5c1.3-3.7,3.2-6.8,5.9-9.5c2.6-2.7,5.7-4.7,9.3-6.2c3.6-1.5,7.5-2.2,11.8-2.2c5.7,0,10.6,1.2,14.9,3.6
		c4.3,2.4,7.6,5.8,9.9,10.2c2.4,4.4,3.6,9.5,3.6,15.4v59.3h-23.6V103c0-5-1.2-8.9-3.6-11.6c-2.4-2.7-5.9-4-10.5-4
		c-3,0-5.6,0.7-7.8,2.1c-2.2,1.4-4,3.3-5.2,5.7c-1.2,2.4-1.9,5.3-1.9,8.5v52.7h-22.7v-54c0-4.7-1.2-8.3-3.7-11
		c-2.5-2.6-5.9-3.9-10.3-3.9c-3,0-5.6,0.7-7.8,2.1c-2.3,1.4-4,3.4-5.3,5.9c-1.3,2.5-1.9,5.3-1.9,8.6v52.3h-23.6V69.6z"/>
	<path d="M1035,39.5h21.6v22.6h-7.4l-29.2,94.1h-25.6L1035,39.5z M1022.2,109.7h54.4l6,18.3h-66.4L1022.2,109.7z M1049.6,62.2V39.5
		h14.2l40.7,116.7h-25.7L1049.6,62.2z"/>
	<path d="M1114.4,69.6h23.6v15.1h0.6c1.6-3.5,3.6-6.5,6.2-9.1c2.6-2.5,5.6-4.5,9-5.8c3.4-1.3,7.2-2,11.3-2c7.3,0,13.6,1.8,18.9,5.4
		c5.3,3.6,9.4,8.8,12.2,15.5c2.9,6.7,4.3,14.8,4.3,24.2v0.1c0,9.4-1.4,17.4-4.2,24.2c-2.8,6.7-6.9,11.9-12.1,15.5
		c-5.2,3.6-11.5,5.4-18.8,5.4c-4.1,0-7.9-0.7-11.4-2c-3.5-1.3-6.6-3.2-9.1-5.7c-2.6-2.5-4.7-5.4-6.3-8.9h-0.5v43.1h-23.6V69.6z
		 M1167.5,135.4c2.9-2.1,5.1-5,6.6-8.9c1.5-3.8,2.3-8.4,2.3-13.6v-0.1c0-5.3-0.8-9.8-2.3-13.6c-1.6-3.8-3.8-6.7-6.6-8.8
		c-2.9-2-6.2-3.1-10.1-3.1c-3.8,0-7.2,1-10.1,3.1c-2.9,2.1-5.2,5-6.8,8.9c-1.6,3.8-2.4,8.4-2.4,13.6v0.1c0,5.2,0.8,9.7,2.5,13.5
		c1.6,3.8,3.9,6.8,6.8,8.9c2.9,2.1,6.2,3.1,10.1,3.1C1161.2,138.5,1164.6,137.4,1167.5,135.4z"/>
	<path d="M1212.7,69.6h23.6v15.1h0.6c1.6-3.5,3.6-6.5,6.2-9.1c2.6-2.5,5.6-4.5,9-5.8c3.4-1.3,7.2-2,11.3-2c7.3,0,13.6,1.8,18.9,5.4
		c5.3,3.6,9.4,8.8,12.2,15.5c2.9,6.7,4.3,14.8,4.3,24.2v0.1c0,9.4-1.4,17.4-4.2,24.2c-2.8,6.7-6.9,11.9-12.1,15.5
		c-5.2,3.6-11.5,5.4-18.8,5.4c-4.1,0-7.9-0.7-11.4-2c-3.5-1.3-6.6-3.2-9.1-5.7c-2.6-2.5-4.7-5.4-6.3-8.9h-0.5v43.1h-23.6V69.6z
		 M1265.8,135.4c2.9-2.1,5.1-5,6.6-8.9c1.5-3.8,2.3-8.4,2.3-13.6v-0.1c0-5.3-0.8-9.8-2.3-13.6c-1.6-3.8-3.8-6.7-6.6-8.8
		c-2.9-2-6.2-3.1-10.1-3.1c-3.8,0-7.2,1-10.1,3.1c-2.9,2.1-5.2,5-6.8,8.9c-1.6,3.8-2.4,8.4-2.4,13.6v0.1c0,5.2,0.8,9.7,2.5,13.5
		c1.6,3.8,3.9,6.8,6.8,8.9c2.9,2.1,6.2,3.1,10.1,3.1C1259.5,138.5,1262.9,137.4,1265.8,135.4z"/>
</g>
</svg>
